<svg xmlns="http://www.w3.org/2000/svg" width="720" height="150" viewBox="0 0 720 150" role="img" aria-labelledby="title desc">
  <title id="title">Smakvärlden</title>
  <desc id="desc">Smakvärlden wordmark with the subtitle Restaurang, Kostnad, Marginal.</desc>
  <defs>
    <radialGradient id="bg" cx="32%" cy="24%" r="82%">
      <stop offset="0%" stop-color="#4a2718"/>
      <stop offset="100%" stop-color="#241008"/>
    </radialGradient>
  </defs>
  <rect x="12" y="22" width="106" height="106" rx="24" fill="url(#bg)"/>
  <path d="M35 86h55" fill="none" stroke="#d7b45a" stroke-width="4" stroke-linecap="round"/>
  <path d="M38 84c2.2-18 16-30 32-30s29.8 12 32 30" fill="none" stroke="#d7b45a" stroke-width="4" stroke-linecap="round"/>
  <path d="M64 54v-7" fill="none" stroke="#d7b45a" stroke-width="4" stroke-linecap="round"/>
  <path d="M59 47h10" fill="none" stroke="#d7b45a" stroke-width="4" stroke-linecap="round"/>
  <path d="M39 91h42" fill="none" stroke="#d7b45a" stroke-width="4" stroke-linecap="round"/>
  <path d="M47 84l14-13 13 12 18-20" fill="none" stroke="#d7b45a" stroke-width="4" stroke-linecap="round" stroke-linejoin="round"/>
  <path d="M81 63h11v11" fill="none" stroke="#d7b45a" stroke-width="4" stroke-linecap="round" stroke-linejoin="round"/>
  <path d="M61 88v27" fill="none" stroke="#d7b45a" stroke-width="3.8" stroke-linecap="round"/>
  <path d="M52 88v14M57 88v14M66 88v14M52 102c0 5.4 3.4 8.2 9 8.2s9-2.8 9-8.2" fill="none" stroke="#d7b45a" stroke-width="3.8" stroke-linecap="round"/>
  <text x="148" y="78" fill="#2f160d" font-family="Georgia, 'Times New Roman', serif" font-size="58" font-weight="700" letter-spacing="-1.5">Smakvärlden</text>
  <text x="151" y="113" fill="#b88a28" font-family="Arial, Helvetica, sans-serif" font-size="17" font-weight="700" letter-spacing="5">RESTAURANG • KOSTNAD • MARGINAL</text>
</svg>
